<svg width="442" height="442" viewBox="0 0 442 442" fill="none" xmlns="http://www.w3.org/2000/svg">
<circle cx="221" cy="221" r="55.8095" fill="#18181C"/>
<circle cx="221" cy="221" r="112.049" stroke="#222228"/>
<circle cx="221" cy="221" r="164.138" stroke="#222228"/>
<circle cx="221" cy="221" r="164.138" stroke="#222228"/>
<circle cx="221" cy="221" r="219.948" stroke="#222228"/>
<path d="M372.254 186.428C388.006 186.428 400.776 173.658 400.776 157.906C400.776 142.153 388.006 129.383 372.254 129.383C356.501 129.383 343.731 142.153 343.731 157.906C343.731 173.658 356.501 186.428 372.254 186.428Z" fill="#FFE01B"/>
<path fill-rule="evenodd" clip-rule="evenodd" d="M384.539 153.096C383.716 152.418 382.644 152.079 381.324 152.078C382.697 150.841 383.036 149.237 382.341 147.266C382.095 146.55 381.743 145.964 381.285 145.508C380.826 145.051 380.281 144.728 379.647 144.538C379.013 144.349 378.35 144.249 377.659 144.239C376.969 144.229 376.194 144.289 375.335 144.421L374.29 140.23L371.836 140.841L372.852 144.916C372.427 145.022 371.782 145.195 370.917 145.434L369.892 141.326L367.438 141.938L368.483 146.129C368.136 146.228 367.622 146.362 366.942 146.531L363.56 147.357L364.24 150.085L366.008 149.644C366.816 149.442 367.382 149.701 367.709 150.421L368.899 155.194C369.005 155.168 369.091 155.152 369.158 155.147L368.903 155.211L370.57 161.897C370.626 162.483 370.388 162.843 369.857 162.975L368.089 163.416L368.353 166.583L371.54 165.789C371.742 165.738 372.035 165.668 372.419 165.578C372.803 165.488 373.09 165.42 373.281 165.372L374.339 169.613L376.793 169.001L375.748 164.81C376.197 164.71 376.846 164.554 377.696 164.342L378.737 168.516L381.191 167.904L380.133 163.663C380.994 163.402 381.746 163.127 382.39 162.836C383.034 162.545 383.632 162.194 384.183 161.779C384.734 161.365 385.168 160.912 385.485 160.421C385.803 159.93 386.022 159.351 386.144 158.684C386.265 158.018 386.266 157.282 386.143 156.476C385.898 154.901 385.363 153.774 384.539 153.096ZM371.711 148.416L371.711 148.416L372.984 153.521C373.037 153.508 373.221 153.465 373.536 153.393C373.851 153.32 374.098 153.258 374.277 153.208C374.456 153.157 374.719 153.08 375.065 152.976C375.412 152.872 375.696 152.769 375.919 152.666C376.142 152.563 376.4 152.434 376.694 152.278C376.988 152.123 377.22 151.956 377.39 151.778C377.56 151.6 377.72 151.402 377.868 151.182C378.016 150.963 378.106 150.713 378.138 150.434C378.17 150.156 378.147 149.861 378.07 149.55C377.979 149.184 377.831 148.877 377.628 148.627C377.425 148.377 377.205 148.185 376.968 148.05C376.731 147.914 376.438 147.823 376.087 147.775C375.737 147.727 375.422 147.708 375.142 147.719C374.863 147.73 374.525 147.767 374.129 147.83C373.733 147.894 373.422 147.956 373.194 148.019C372.967 148.081 372.682 148.158 372.338 148.25C371.995 148.342 371.785 148.397 371.711 148.416L371.711 148.415L371.711 148.416L371.711 148.416ZM381.011 158.834C381.123 158.606 381.198 158.351 381.235 158.071C381.273 157.791 381.253 157.496 381.176 157.185C381.076 156.786 380.908 156.451 380.671 156.18C380.434 155.909 380.174 155.704 379.891 155.562C379.607 155.421 379.259 155.328 378.848 155.283C378.436 155.239 378.063 155.223 377.727 155.236C377.392 155.249 376.986 155.297 376.511 155.38C376.035 155.463 375.664 155.538 375.399 155.605C375.133 155.671 374.792 155.761 374.375 155.877C373.958 155.993 373.707 156.062 373.622 156.083L375.024 161.705C375.109 161.683 375.306 161.637 375.616 161.565C375.925 161.494 376.181 161.434 376.383 161.383C376.584 161.333 376.864 161.254 377.221 161.148C377.578 161.041 377.883 160.942 378.136 160.849C378.39 160.756 378.681 160.634 379.01 160.481C379.338 160.328 379.614 160.177 379.836 160.027C380.058 159.878 380.282 159.699 380.506 159.489C380.73 159.281 380.899 159.062 381.011 158.834Z" fill="black"/>
<path fill-rule="evenodd" clip-rule="evenodd" d="M372.254 182.04C385.583 182.04 396.388 171.235 396.388 157.906C396.388 144.577 385.583 133.772 372.254 133.772C358.925 133.772 348.12 144.577 348.12 157.906C348.12 171.235 358.925 182.04 372.254 182.04Z" stroke="black" stroke-width="1.38125"/>
<path d="M164.82 405.097C180.572 405.097 193.342 392.328 193.342 376.575C193.342 360.823 180.572 348.053 164.82 348.053C149.068 348.053 136.298 360.823 136.298 376.575C136.298 392.328 149.068 405.097 164.82 405.097Z" fill="#4353FF"/>
<path fill-rule="evenodd" clip-rule="evenodd" d="M158.857 374.124L164.823 368.16L170.791 374.129L174.261 370.657L164.823 361.217L155.385 370.654L158.857 374.124ZM149.462 376.576L152.932 373.105L156.403 376.576L152.932 380.046L149.462 376.576ZM164.823 384.992L158.857 379.027L155.38 382.494L155.385 382.498L164.823 391.933L174.261 382.494L174.263 382.491L170.791 379.024L164.823 384.992ZM173.237 376.577L176.708 373.106L180.178 376.577L176.708 380.047L173.237 376.577ZM164.823 373.051L168.343 376.574H168.346L168.343 376.576L164.823 380.099L161.303 376.581L161.298 376.574L161.303 376.569L161.919 375.953L162.22 375.655L164.823 373.051Z" fill="white"/>
<path fill-rule="evenodd" clip-rule="evenodd" d="M85.3039 164.82C101.056 164.82 113.826 152.05 113.826 136.298C113.826 120.546 101.056 107.776 85.3039 107.776C69.5515 107.776 56.7817 120.546 56.7817 136.298C56.7817 152.05 69.5515 164.82 85.3039 164.82Z" fill="#FF530D"/>
<path fill-rule="evenodd" clip-rule="evenodd" d="M82.8051 123.134C84.3715 123.134 85.9322 123.134 87.4987 123.134C87.4065 124.194 87.3086 125.259 87.2222 126.319C89.0478 126.451 90.8274 127.038 92.4283 127.908C91.7373 129.647 91.0404 131.386 90.3436 133.126C88.996 131.98 87.2222 131.346 85.4542 131.369C85.0108 131.381 84.5501 131.467 84.1815 131.721C83.9396 131.888 83.7611 132.147 83.7093 132.435C83.669 132.665 83.6805 132.924 83.8072 133.131C83.9511 133.362 84.2045 133.5 84.4579 133.586C84.9762 133.771 85.5349 133.782 86.0762 133.84C87.3489 133.995 88.6274 134.214 89.8311 134.669C90.764 135.026 91.6566 135.562 92.2959 136.345C92.9006 137.065 93.2519 137.975 93.3843 138.908C93.5398 139.985 93.4938 141.102 93.1597 142.15C92.9006 142.991 92.4571 143.774 91.8812 144.436C90.6891 145.818 88.9384 146.648 87.1416 146.861C87.1992 147.995 87.2683 149.124 87.3317 150.259C85.8458 150.259 84.3658 150.259 82.8857 150.259C82.9433 149.136 83.0182 148.013 83.07 146.89C81.8779 146.849 80.6973 146.584 79.5858 146.164C78.5089 145.755 77.4838 145.214 76.5278 144.58C77.2304 142.772 77.933 140.964 78.6414 139.15C79.4419 139.823 80.2942 140.451 81.2272 140.929C82.2292 141.442 83.3407 141.77 84.4695 141.781C85.005 141.787 85.5579 141.758 86.0647 141.574C86.3757 141.459 86.6809 141.257 86.8191 140.941C86.9631 140.607 86.9516 140.186 86.7327 139.887C86.5772 139.685 86.3584 139.547 86.128 139.449C85.8171 139.322 85.4945 139.253 85.1663 139.201C83.9569 139.006 82.7418 138.844 81.5727 138.464C80.634 138.159 79.7183 137.733 78.9696 137.076C78.4974 136.667 78.1058 136.166 77.8294 135.602C77.4147 134.761 77.2592 133.811 77.2707 132.878C77.2707 131.836 77.4838 130.776 78.0021 129.86C78.4513 129.043 79.1366 128.375 79.9083 127.862C80.8413 127.246 81.8837 126.825 82.9433 126.486C82.8973 125.368 82.8512 124.251 82.8051 123.134Z" fill="white"/>
<path fill-rule="evenodd" clip-rule="evenodd" d="M198.604 220.097C198.604 208.163 208.698 198.604 221 198.604C233.302 198.604 243.396 208.163 243.396 220.097C243.396 232.031 233.302 241.59 221 241.59C219.55 241.592 218.105 241.458 216.681 241.191C216.187 241.098 215.873 241.039 215.64 241.007C215.465 240.981 215.29 241.046 215.225 241.081C214.986 241.195 214.668 241.363 214.182 241.622C211.199 243.208 207.719 243.771 204.363 243.147C203.821 243.046 203.372 242.667 203.182 242.149C202.991 241.632 203.088 241.052 203.436 240.625C204.41 239.426 205.081 237.982 205.377 236.427C205.457 236 205.276 235.419 204.718 234.853C200.937 231.014 198.604 225.822 198.604 220.097ZM218.917 215.288C218.917 214.66 219.589 213.708 221 213.708C222.411 213.708 223.083 214.66 223.083 215.288C223.083 215.542 223.002 215.796 222.825 216.037C222.588 216.361 222.283 216.708 221.897 217.129C221.837 217.195 221.775 217.262 221.711 217.331L221.711 217.331C221.388 217.683 221.018 218.085 220.681 218.492C219.909 219.426 218.917 220.827 218.917 222.614V223.53C218.917 224.68 219.849 225.613 221 225.613C222.151 225.613 223.083 224.68 223.083 223.53V222.614C223.083 222.378 223.222 221.957 223.891 221.148C224.152 220.833 224.434 220.526 224.756 220.176L224.757 220.175C224.826 220.099 224.897 220.022 224.97 219.943C225.358 219.519 225.802 219.024 226.188 218.498C226.847 217.597 227.25 216.492 227.25 215.288C227.25 211.87 224.192 209.542 221 209.542C217.809 209.542 214.75 211.87 214.75 215.288C214.75 216.439 215.683 217.371 216.833 217.371C217.984 217.371 218.917 216.439 218.917 215.288ZM221 228.292C219.849 228.292 218.917 229.224 218.917 230.375C218.917 231.526 219.849 232.458 221 232.458H221.025C222.176 232.458 223.108 231.526 223.108 230.375C223.108 229.224 222.176 228.292 221.025 228.292H221Z" fill="#AABD42"/>
<circle cx="271.994" cy="64.5605" r="13.8289" fill="url(#paint0_radial_5_8)" fill-opacity="0.3"/>
<path d="M271.994 72.3393C276.29 72.3393 279.773 68.8566 279.773 64.5605C279.773 60.2644 276.29 56.7817 271.994 56.7817C267.698 56.7817 264.215 60.2644 264.215 64.5605C264.215 68.8566 267.698 72.3393 271.994 72.3393Z" fill="url(#paint1_radial_5_8)"/>
<mask id="mask0_5_8" style="mask-type:luminance" maskUnits="userSpaceOnUse" x="264" y="56" width="16" height="17">
<path d="M271.994 72.3393C276.29 72.3393 279.773 68.8566 279.773 64.5605C279.773 60.2644 276.29 56.7817 271.994 56.7817C267.698 56.7817 264.215 60.2644 264.215 64.5605C264.215 68.8566 267.698 72.3393 271.994 72.3393Z" fill="white"/>
</mask>
<g mask="url(#mask0_5_8)">
<path fill-rule="evenodd" clip-rule="evenodd" d="M274.061 64.2969C273.629 64.8199 273.208 65.3356 273.208 65.3356C273.208 65.3356 273.578 65.9241 273.428 66.756C273.277 67.5876 272.799 68.1507 272.799 68.1507C272.799 68.1507 272.759 67.6616 272.651 67.3886C272.543 67.1156 272.116 66.5753 272.116 66.5753C272.116 66.5753 271.923 66.8105 271.699 66.8218C271.615 66.826 271.479 66.7601 271.32 66.6601C271.302 66.6884 271.282 66.7167 271.262 66.7446C270.64 67.6244 269.772 68.0808 269.325 67.7644C268.878 67.4476 269.02 66.4779 269.643 65.5981C269.669 65.5608 269.696 65.5247 269.723 65.489C269.548 65.3419 269.421 65.2067 269.413 65.1118C269.394 64.8956 269.493 64.7479 269.493 64.7479C269.493 64.7479 269.076 64.5736 268.659 64.5621C268.242 64.5506 267.805 64.6757 267.805 64.6757C267.805 64.6757 268.207 63.9933 268.863 63.6293C269.519 63.2653 270.35 63.2805 270.35 63.2805C270.35 63.2805 270.729 62.6246 270.911 62.3175L270.932 62.2821C271.121 61.9613 271.496 61.3237 272.431 60.8199C273.402 60.2967 274.562 60.3763 274.562 60.3763C274.562 60.3763 274.873 61.2558 274.873 62.1658C274.873 63.0758 274.494 63.7735 274.061 64.2969ZM272.81 61.8735C272.297 61.8735 271.881 62.2893 271.881 62.8024C271.881 63.3154 272.297 63.7313 272.81 63.7313C273.323 63.7313 273.739 63.3154 273.739 62.8024C273.739 62.2893 273.323 61.8735 272.81 61.8735ZM269.769 67.1241C269.456 66.8929 269.536 66.2527 269.949 65.6943C269.95 65.6933 269.95 65.6922 269.951 65.6912C269.952 65.6901 269.953 65.6889 269.954 65.6877C270.066 65.7713 270.182 65.8545 270.291 65.9327C270.345 65.9711 270.397 66.0082 270.446 66.0436C270.525 66.1011 270.61 66.1652 270.698 66.2312C270.828 66.3283 270.963 66.4295 271.091 66.5197C271.09 66.5216 271.089 66.5235 271.087 66.5253C271.086 66.5276 271.084 66.5298 271.083 66.5319C270.67 67.0904 270.082 67.3553 269.769 67.1241Z" fill="#6DDFFF"/>
<path fill-rule="evenodd" clip-rule="evenodd" d="M266.31 70.245L267.568 68.5749C267.635 68.486 267.761 68.4682 267.85 68.5352C267.939 68.6022 267.957 68.7286 267.89 68.8175L266.632 70.4876L266.31 70.245Z" fill="#6DDFFF"/>
<path fill-rule="evenodd" clip-rule="evenodd" d="M266.977 70.7659L267.794 69.6814C267.861 69.5924 267.987 69.5747 268.076 69.6417C268.165 69.7087 268.183 69.8351 268.116 69.924L267.299 71.0085L266.977 70.7659Z" fill="#6DDFFF"/>
</g>
<circle cx="319.531" cy="350.646" r="13.8289" fill="url(#paint2_radial_5_8)" fill-opacity="0.3"/>
<circle cx="319.531" cy="350.646" r="7.8296" fill="url(#paint3_radial_5_8)"/>
<circle cx="63.6961" cy="263.351" r="13.8289" fill="url(#paint4_radial_5_8)" fill-opacity="0.3"/>
<circle cx="63.6961" cy="263.351" r="7.8296" fill="url(#paint5_radial_5_8)"/>
<defs>
<radialGradient id="paint0_radial_5_8" cx="0" cy="0" r="1" gradientUnits="userSpaceOnUse" gradientTransform="translate(266.965 48.8458) rotate(68.4287) scale(29.0649 342.397)">
<stop stop-color="#FF9898"/>
<stop offset="1" stop-color="#8054FF"/>
</radialGradient>
<radialGradient id="paint1_radial_5_8" cx="0" cy="0" r="1" gradientUnits="userSpaceOnUse" gradientTransform="translate(269.165 55.721) rotate(68.4287) scale(16.349 192.599)">
<stop stop-color="#FF9898"/>
<stop offset="1" stop-color="#8054FF"/>
</radialGradient>
<radialGradient id="paint2_radial_5_8" cx="0" cy="0" r="1" gradientUnits="userSpaceOnUse" gradientTransform="translate(314.502 334.931) rotate(68.4287) scale(29.0649 342.397)">
<stop stop-color="#FF9898"/>
<stop offset="1" stop-color="#8054FF"/>
</radialGradient>
<radialGradient id="paint3_radial_5_8" cx="0" cy="0" r="1" gradientUnits="userSpaceOnUse" gradientTransform="translate(316.684 341.749) rotate(68.4287) scale(16.4559 193.857)">
<stop stop-color="#FF9898"/>
<stop offset="1" stop-color="#8054FF"/>
</radialGradient>
<radialGradient id="paint4_radial_5_8" cx="0" cy="0" r="1" gradientUnits="userSpaceOnUse" gradientTransform="translate(58.6674 247.636) rotate(68.4287) scale(29.0649 342.397)">
<stop stop-color="#FF9898"/>
<stop offset="1" stop-color="#8054FF"/>
</radialGradient>
<radialGradient id="paint5_radial_5_8" cx="0" cy="0" r="1" gradientUnits="userSpaceOnUse" gradientTransform="translate(60.8489 254.454) rotate(68.4287) scale(16.4559 193.857)">
<stop stop-color="#FF9898"/>
<stop offset="1" stop-color="#8054FF"/>
</radialGradient>
</defs>
</svg>
